<svg width="500" height="66" viewBox="0 0 500 66" fill="none" xmlns="http://www.w3.org/2000/svg">
<path d="M37.4796 6.78979C37.4796 1.35796 32.3194 0 28.2455 0V0.814775C30.6898 0.814775 32.591 1.62955 32.591 3.53069C32.591 4.61706 31.7762 6.2466 29.3319 6.2466C27.4307 6.2466 23.3569 5.16024 20.3694 4.07387C16.8387 2.71592 13.5796 1.62955 10.8637 1.62955C5.43183 1.62955 1.62955 5.70342 1.62955 10.3205C1.62955 14.3944 4.61706 15.7523 5.70342 16.2955L5.97501 15.7523C5.43183 15.2091 4.61706 14.6659 4.61706 13.0364C4.61706 11.95 5.70342 10.0489 8.41934 10.0489C10.8637 10.0489 14.1228 11.1353 18.4682 12.4932C22.2705 13.5796 26.3444 14.3944 28.5171 14.6659V23.0853L24.4432 26.616V26.8876L28.5171 30.4183V42.0967C26.3444 43.4546 23.9001 43.7262 21.7273 43.7262C17.6534 43.7262 14.1228 42.6399 11.1353 39.3808L22.2705 33.9489V15.2091L8.69093 21.1841C9.7773 17.6534 12.7648 15.2091 15.7523 13.5796L15.4807 12.7648C7.33297 14.9375 0 22.5421 0 31.7762C0 42.6399 8.96252 50.7876 19.0114 50.7876C29.8751 50.7876 36.9364 42.0967 36.9364 33.1342H36.3933C34.7637 36.6649 32.3194 39.924 29.3319 41.5535V30.4183L33.6773 26.8876V26.616L29.3319 23.0853V14.6659C33.4058 14.6659 37.4796 11.95 37.4796 6.78979ZM13.8512 36.6649L10.5921 38.2944C8.69093 35.8501 7.60456 32.591 7.60456 27.9739C7.60456 26.0728 7.60456 23.9001 8.14775 22.2705L13.8512 19.8262V36.6649ZM42.6399 42.9115L39.1092 45.6274L39.6524 46.1706L41.2819 44.8126L47.2569 50.2444L55.4047 44.8126L55.1331 44.2694L52.9603 45.6274L50.2444 42.9115V24.4432L52.4172 22.8137L57.0342 26.616V43.1831C57.0342 53.5035 54.8615 55.1331 50.2444 56.7626V57.5774C57.849 57.849 64.9104 55.4047 64.9104 42.0967V24.1716L67.3547 22.2705L66.8115 21.7273L64.6388 23.3569L57.849 17.6534L50.2444 23.3569V1.08637H49.7012L40.1955 7.60456V8.14775C41.2819 8.69093 42.9115 9.23411 42.9115 12.2216L42.6399 42.9115ZM92.3411 39.924L85.5513 45.0842L78.7615 39.6524V36.3933L91.5263 27.7023V27.4307L85.0081 17.6534L70.8854 25.258V43.1831L68.1695 45.3558L68.7127 45.899L71.157 43.9978L80.3911 50.7876L92.6127 41.0103L92.3411 39.924ZM78.7615 35.3069V21.9989L79.3047 21.7273L85.2797 31.233L78.7615 35.3069ZM144.215 4.34546C144.215 3.53069 143.944 2.71592 143.672 1.90114H143.129C142.314 4.07387 141.228 5.16024 138.512 5.16024C136.067 5.16024 134.438 3.80228 133.351 2.71592L125.475 11.6784L126.018 12.2216L128.734 9.77729C130.364 11.1353 131.722 12.2216 135.524 12.4932V35.0353L119.5 7.60456C118.142 5.43183 116.241 2.44432 112.439 2.44432C108.093 2.44432 104.291 6.2466 104.834 12.2216H105.649C105.921 10.5921 106.735 8.69093 108.637 8.69093C109.995 8.69093 111.353 10.0489 112.167 11.4068V20.3694C107.279 20.3694 104.02 22.5421 104.02 26.616C104.02 28.7887 105.106 32.0478 108.365 32.8626V32.3194C107.822 31.7762 107.55 31.233 107.55 30.4183C107.55 29.0603 108.637 27.9739 110.538 27.9739H111.896V39.3808C106.192 39.3808 101.575 42.6399 101.575 48.0717C101.575 53.2319 105.921 55.6763 110.809 55.4047V54.8615C107.822 54.5899 106.464 53.2319 106.464 51.3308C106.464 48.8865 108.093 47.8001 110.266 47.8001C112.439 47.8001 114.34 49.1581 115.698 50.7876L123.574 42.0967L123.031 41.5535L121.13 43.7262C118.142 41.0103 116.513 40.1955 112.982 39.6524V12.4932L134.709 50.516H136.339V12.4932C140.413 12.2216 144.215 8.96252 144.215 4.34546ZM164.041 39.924L157.251 45.0842L150.462 39.6524V36.3933L163.227 27.7023V27.4307L156.708 17.6534L142.586 25.258V43.1831L139.87 45.3558L140.413 45.899L142.857 43.9978L152.091 50.7876L164.313 41.0103L164.041 39.924ZM150.462 35.3069V21.9989L151.005 21.7273L156.98 31.233L150.462 35.3069ZM208.311 20.641L206.41 21.9989L201.249 17.6534L195.274 23.0853L197.719 25.5296V45.899L191.2 41.8251V24.9864L193.373 23.6285L187.127 17.6534L181.152 23.0853L183.596 25.5296V45.0842L182.781 45.6274L177.078 41.5535V25.258C177.078 21.4557 175.177 20.3694 173.004 19.0114C171.103 17.6534 170.016 16.8387 170.016 14.9375C170.016 13.308 171.646 12.4932 172.461 11.95V11.4068C170.288 11.4068 164.584 13.5796 164.584 18.7398C164.584 21.4557 165.942 22.5421 167.3 23.9001C168.658 25.258 170.016 26.3444 170.016 28.7887V44.541L167.029 46.7137L167.572 47.2569L170.288 45.0842L176.534 50.516L183.324 45.899L190.929 50.516L205.323 42.0967V23.9001L208.854 21.1841L208.311 20.641ZM258.827 5.70342L256.111 8.14775L250.136 2.71592L241.173 9.23411V3.2591H240.358L240.63 47.2569C239.815 47.2569 237.371 46.7137 235.47 46.1706L234.927 9.5057C234.927 6.78979 233.026 2.98751 228.137 2.98751C223.248 2.98751 219.989 6.78979 219.989 10.5921H220.804C221.076 8.96252 221.89 7.60456 223.52 7.60456C225.149 7.60456 226.507 8.69093 226.507 12.2216V22.8137C221.619 23.0853 218.631 25.8012 218.631 29.3319C218.631 31.5046 219.718 34.7637 222.977 34.7637V34.2205C221.89 33.6773 221.619 32.8626 221.619 32.3194C221.619 30.6898 222.977 30.1467 225.149 30.1467H226.236V46.9853C222.162 48.3433 220.532 51.3308 220.532 54.5899C220.532 59.207 224.063 62.466 229.495 62.466C233.297 62.466 236.556 61.9229 239.815 61.1081C242.531 60.5649 246.062 59.7501 247.691 59.7501C249.864 59.7501 250.679 60.8365 250.679 62.1945C250.679 64.0956 249.864 64.9104 248.778 65.182V65.7252C253.123 64.9104 255.839 62.1945 255.839 58.1206C255.839 54.0467 251.765 51.6024 247.42 51.6024C245.247 51.6024 240.63 52.4172 237.371 52.9603C233.569 53.7751 229.766 54.3183 228.68 54.3183C226.779 54.3183 224.606 53.5035 224.606 50.7876C224.606 48.6149 226.507 46.7137 231.124 46.7137C233.569 46.7137 236.556 46.9853 239.544 47.8001C242.803 48.6149 245.79 49.4297 248.506 49.4297C252.58 49.4297 256.111 48.0717 256.111 42.3683V8.96252L259.37 6.2466L258.827 5.70342ZM247.691 22.2705C246.877 23.0853 245.79 23.9001 244.432 23.9001C243.074 23.9001 241.716 23.0853 241.173 22.2705V10.3205L243.889 8.41934L247.691 11.95V22.2705ZM247.691 30.4183C247.148 29.8751 245.79 29.0603 244.432 29.0603C243.074 29.0603 241.716 29.8751 241.173 30.4183V23.3569C241.716 23.9001 243.074 24.7148 244.432 24.7148C245.79 24.7148 247.148 23.9001 247.691 23.3569V30.4183ZM247.691 43.1831C247.691 45.3558 246.334 47.5285 243.346 47.5285H241.173V31.5046C241.716 30.9614 243.074 30.1467 244.432 30.1467C245.79 30.1467 246.877 30.9614 247.691 31.5046V43.1831ZM284.9 23.9001L276.209 17.6534L262.901 25.258V42.9115L260.185 45.0842L260.456 45.6274L262.629 43.9978L271.32 50.516L284.9 42.3683V23.9001ZM270.234 41.0103V21.4557L277.023 26.3444V45.6274L270.234 41.0103ZM310.701 18.1966H310.158C309.343 18.7398 308.528 19.283 307.713 19.283C306.627 19.283 305.269 18.7398 304.726 17.925H304.182L299.565 23.0853L294.948 17.925L286.801 23.3569L287.072 23.9001L289.245 22.5421L291.961 25.5296V42.6399L288.43 45.3558L288.973 45.899L290.603 44.541L297.121 49.9728L305.54 44.2694L305.269 43.7262L302.825 45.0842L299.565 42.3683V23.3569C300.923 24.7148 302.553 26.0728 304.454 26.0728C308.256 26.3444 310.429 22.5421 310.701 18.1966ZM343.292 44.2694L334.058 50.516L321.564 31.5046L330.527 17.6534H331.07C332.156 18.7398 333.786 19.8262 335.687 19.8262C337.588 19.8262 338.946 18.7398 339.761 17.6534H340.304C340.033 23.0853 336.23 26.3444 333.514 26.3444C330.798 26.3444 329.44 24.9864 327.811 24.1716L326.996 25.5296L340.576 45.6274L343.292 43.9978V44.2694ZM313.417 42.9115L309.886 45.6274L310.429 46.1706L312.059 44.8126L318.034 50.2444L326.181 44.8126L325.638 44.2694L323.465 45.6274L320.75 42.9115V1.08637H320.478L310.701 7.60456V8.14775C311.787 8.69093 313.417 8.96252 313.417 12.2216V42.9115ZM388.376 6.78979C388.376 1.35796 383.216 0 379.142 0V0.814775C381.586 0.814775 383.487 1.62955 383.487 3.53069C383.487 4.61706 382.672 6.2466 380.228 6.2466C378.327 6.2466 374.253 5.16024 371.266 4.07387C367.735 2.98751 364.476 1.90114 361.76 1.90114C356.328 1.90114 352.526 5.97501 352.526 10.5921C352.526 14.6659 355.513 16.0239 356.6 16.5671L356.871 16.0239C356.056 15.4807 355.242 14.9375 355.242 13.308C355.242 12.2216 356.328 10.3205 359.044 10.3205C361.488 10.3205 364.747 11.4068 369.093 12.7648C372.895 13.8512 376.969 14.6659 379.142 14.9375V23.3569L375.068 26.8876V27.1592L379.142 30.6898V42.3683C376.969 43.7262 374.525 43.9978 372.352 43.9978C368.278 43.9978 364.747 42.9115 361.76 39.6524L372.895 34.2205V15.2091L359.316 21.1841C360.674 17.6534 363.661 15.2091 366.377 13.308L366.105 12.7648C357.958 14.9375 350.625 22.2705 350.625 31.5046C350.625 42.3683 359.587 50.516 369.636 50.516C380.5 50.516 387.561 41.8251 387.561 32.8626H387.018C385.388 36.3933 382.944 39.6524 379.957 41.2819V30.1467L384.302 26.616V26.3444L380.228 22.8137V14.6659C384.302 14.6659 388.376 11.95 388.376 6.78979ZM364.747 36.6649L361.488 38.2944C359.587 35.8501 358.501 32.591 358.501 27.9739C358.501 26.0728 358.772 23.9001 359.316 22.2705L365.019 19.8262L364.747 36.6649ZM397.882 4.07387H397.61L392.178 8.69093V8.96252L396.795 14.1228H397.338L402.77 9.5057V9.23411L397.882 4.07387ZM406.029 44.2694L403.857 45.6274L401.141 42.9115V24.1716L403.857 22.2705L403.313 21.7273L401.412 23.3569L396.524 17.6534L388.647 23.0853L389.191 23.9001L391.092 22.5421L393.536 25.5296V43.1831L390.005 45.899L390.277 46.4422L392.178 45.0842L398.153 50.516L406.301 45.0842L406.029 44.2694ZM451.385 43.9978L449.484 45.3558L446.496 42.6399V24.1716L449.212 21.9989L448.669 21.4557L446.496 23.3569L440.25 17.6534L432.102 23.3569L425.855 17.6534L418.251 23.3569L413.362 17.6534L405.486 23.0853L405.758 23.9001L407.659 22.5421L410.375 25.5296V43.1831L408.202 45.3558L414.449 50.516L420.424 45.0842L417.979 42.6399V24.1716L420.424 22.5421L424.498 26.3444V42.6399L422.325 44.8126L428.571 49.9728L434.546 44.541L432.102 42.0967V24.1716L434.275 22.8137L438.62 26.616V42.9115L436.719 44.8126L442.966 50.516L451.385 44.8126V43.9978ZM475.014 39.924L468.224 45.0842L461.434 39.6524V36.3933L474.199 27.7023V27.4307L467.681 17.6534L453.558 25.258V43.7262L463.064 50.516L475.285 40.7387L475.014 39.924ZM461.434 35.3069V21.9989L461.977 21.7273L467.952 31.233L461.434 35.3069ZM499.728 32.8626L494.568 28.7887C498.099 25.8012 499.457 21.7273 499.457 19.0114V17.3819H498.914C498.37 18.7398 497.284 20.0978 495.111 20.0978C492.939 20.0978 491.581 19.0114 490.223 17.3819L478.001 24.1716V33.9489L482.618 37.4796C478.001 41.5535 477.186 44.2694 477.186 46.4422C477.186 49.1581 478.544 51.0592 480.717 51.874L480.989 51.3308C480.445 50.7876 479.902 50.516 479.902 49.1581C479.902 48.3433 480.989 46.9853 483.161 46.9853C485.877 46.9853 487.507 48.8865 488.322 49.7013L500 42.6399V32.8626H499.728ZM496.741 24.7148C494.84 27.9739 490.766 31.233 488.322 32.8626L485.334 30.4183V20.9125C486.42 23.6285 489.408 25.8012 492.395 25.8012C494.297 25.8012 495.383 25.5296 496.741 24.7148ZM492.124 46.4422C490.766 43.4546 487.507 41.2819 484.248 41.2819C483.433 41.2819 481.26 41.2819 479.087 42.6399C480.445 40.4671 483.976 36.6649 488.593 33.9489L491.852 36.6649L492.124 46.4422Z" fill="black"/>
</svg>
